HIERARCHY
ROOT Hips
{
	OFFSET 0.000000 103.266502 0.000000
	CHANNELS 6 Xposition Yposition Zposition Xrotation Yrotation Zrotation 
	JOINT Spine
	{
		OFFSET -0.002400 12.777504 0.315300
		CHANNELS 3 Xrotation Yrotation Zrotation
		JOINT Spine1
		{
			OFFSET -0.002067 5.816869 0.032633
			CHANNELS 3 Xrotation Yrotation Zrotation
			JOINT Spine1_split
			{
				OFFSET -0.002067 5.816869 0.032633
				CHANNELS 3 Xrotation Yrotation Zrotation
				JOINT Spine2
				{
					OFFSET -0.002067 5.816869 0.032633
					CHANNELS 3 Xrotation Yrotation Zrotation
					JOINT Neck
					{
						OFFSET -0.003700 21.199493 -0.826900
						CHANNELS 3 Xrotation Yrotation Zrotation
						JOINT Head
						{
							OFFSET 0.000000 20.442200 4.834800
							CHANNELS 3 Xrotation Yrotation Zrotation
							JOINT HeadTop_End
							{
								OFFSET 0.000000 34.668396 4.968400
								CHANNELS 3 Xrotation Yrotation Zrotation
								End Site
								{
									OFFSET 0.000000 0.000000 0.000000
								}
							}
						}
					}
					JOINT LeftShoulder
					{
						OFFSET 3.288150 8.794197 -1.372250
						CHANNELS 3 Xrotation Yrotation Zrotation
						JOINT LeftShoulder_split
						{
							OFFSET 3.288150 8.794197 -1.372250
							CHANNELS 3 Xrotation Yrotation Zrotation
							JOINT LeftArm
							{
								OFFSET 11.953299 -2.279007 -0.146200
								CHANNELS 3 Xrotation Yrotation Zrotation
								JOINT LeftForeArm
								{
									OFFSET 18.448900 0.000000 0.000000
									CHANNELS 3 Xrotation Yrotation Zrotation
									JOINT LeftHand
									{
										OFFSET 29.527798 0.000000 0.000000
										CHANNELS 3 Xrotation Yrotation Zrotation
										JOINT LeftHandThumb1
										{
											OFFSET 10.739754 -2.369614 9.225399
											CHANNELS 3 Xrotation Yrotation Zrotation
											JOINT LeftHandThumb2
											{
												OFFSET 4.926170 -2.844131 2.844125
												CHANNELS 3 Xrotation Yrotation Zrotation
												JOINT LeftHandThumb3
												{
													OFFSET 4.614891 -2.664413 2.664409
													CHANNELS 3 Xrotation Yrotation Zrotation
													JOINT LeftHandThumb4
													{
														OFFSET 4.432465 -2.559082 2.559083
														CHANNELS 3 Xrotation Yrotation Zrotation
														End Site
														{
															OFFSET 0.000000 0.000000 0.000000
														}
													}
												}
											}
										}
										JOINT LeftHandIndex1
										{
											OFFSET 26.467674 0.187653 6.405298
											CHANNELS 3 Xrotation Yrotation Zrotation
											JOINT LeftHandIndex2
											{
												OFFSET 8.792900 0.000000 0.000000
												CHANNELS 3 Xrotation Yrotation Zrotation
												JOINT LeftHandIndex3
												{
													OFFSET 10.075203 0.000000 0.000000
													CHANNELS 3 Xrotation Yrotation Zrotation
													End Site
													{
														OFFSET 0.000000 0.000000 0.000000
													}
												}
											}
										}
										JOINT LeftHandMiddle1
										{
											OFFSET 25.764404 0.000000 0.000000
											CHANNELS 3 Xrotation Yrotation Zrotation
											JOINT LeftHandMiddle2
											{
												OFFSET 9.393974 0.000000 0.000000
												CHANNELS 3 Xrotation Yrotation Zrotation
												JOINT LeftHandMiddle3
												{
													OFFSET 10.771950 0.000000 0.000000
													CHANNELS 3 Xrotation Yrotation Zrotation
													End Site
													{
														OFFSET 0.000000 0.000000 0.000000
													}
												}
											}
										}
										JOINT LeftHandRing1
										{
											OFFSET 24.660927 0.144547 -6.225808
											CHANNELS 3 Xrotation Yrotation Zrotation
											JOINT LeftHandRing2
											{
												OFFSET 9.393799 0.000000 0.000000
												CHANNELS 3 Xrotation Yrotation Zrotation
												JOINT LeftHandRing3
												{
													OFFSET 9.928497 0.000000 0.000000
													CHANNELS 3 Xrotation Yrotation Zrotation
													End Site
													{
														OFFSET 0.000000 0.000000 0.000000
													}
												}
											}
										}
										JOINT LeftHandPinky1
										{
											OFFSET 23.655350 0.125290 -12.815412
											CHANNELS 3 Xrotation Yrotation Zrotation
											JOINT LeftHandPinky2
											{
												OFFSET 8.425102 0.000000 0.000000
												CHANNELS 3 Xrotation Yrotation Zrotation
												JOINT LeftHandPinky3
												{
													OFFSET 8.147003 0.000000 0.000000
													CHANNELS 3 Xrotation Yrotation Zrotation
													End Site
													{
														OFFSET 0.000000 0.000000 0.000000
													}
												}
											}
										}
									}
								}
							}
						}
					}
					JOINT RightShoulder
					{
						OFFSET -3.249400 8.794197 -1.372250
						CHANNELS 3 Xrotation Yrotation Zrotation
						JOINT RightShoulder_split
						{
							OFFSET -3.249400 8.794197 -1.372250
							CHANNELS 3 Xrotation Yrotation Zrotation
							JOINT RightArm
							{
								OFFSET -11.953299 -2.279007 -0.146200
								CHANNELS 3 Xrotation Yrotation Zrotation
								JOINT RightForeArm
								{
									OFFSET -18.448900 0.000000 0.000000
									CHANNELS 3 Xrotation Yrotation Zrotation
									JOINT RightHand
									{
										OFFSET -29.527802 0.000000 0.000000
										CHANNELS 3 Xrotation Yrotation Zrotation
										JOINT RightHandThumb1
										{
											OFFSET -10.739754 -2.369614 9.225399
											CHANNELS 3 Xrotation Yrotation Zrotation
											JOINT RightHandThumb2
											{
												OFFSET -4.926170 -2.844131 2.844125
												CHANNELS 3 Xrotation Yrotation Zrotation
												JOINT RightHandThumb3
												{
													OFFSET -4.614891 -2.664413 2.664409
													CHANNELS 3 Xrotation Yrotation Zrotation
													JOINT RightHandThumb4
													{
														OFFSET -4.432465 -2.559082 2.559083
														CHANNELS 3 Xrotation Yrotation Zrotation
														End Site
														{
															OFFSET 0.000000 0.000000 0.000000
														}
													}
												}
											}
										}
										JOINT RightHandIndex1
										{
											OFFSET -26.467674 0.187653 6.405298
											CHANNELS 3 Xrotation Yrotation Zrotation
											JOINT RightHandIndex2
											{
												OFFSET -8.792900 0.000000 0.000000
												CHANNELS 3 Xrotation Yrotation Zrotation
												JOINT RightHandIndex3
												{
													OFFSET -10.075203 0.000000 0.000000
													CHANNELS 3 Xrotation Yrotation Zrotation
													End Site
													{
														OFFSET 0.000000 0.000000 0.000000
													}
												}
											}
										}
										JOINT RightHandMiddle1
										{
											OFFSET -25.764404 0.000000 0.000000
											CHANNELS 3 Xrotation Yrotation Zrotation
											JOINT RightHandMiddle2
											{
												OFFSET -9.393974 0.000000 0.000000
												CHANNELS 3 Xrotation Yrotation Zrotation
												JOINT RightHandMiddle3
												{
													OFFSET -10.771950 0.000000 0.000000
													CHANNELS 3 Xrotation Yrotation Zrotation
													End Site
													{
														OFFSET 0.000000 0.000000 0.000000
													}
												}
											}
										}
										JOINT RightHandRing1
										{
											OFFSET -24.660927 0.144547 -6.225808
											CHANNELS 3 Xrotation Yrotation Zrotation
											JOINT RightHandRing2
											{
												OFFSET -9.393799 0.000000 0.000000
												CHANNELS 3 Xrotation Yrotation Zrotation
												JOINT RightHandRing3
												{
													OFFSET -9.928497 0.000000 0.000000
													CHANNELS 3 Xrotation Yrotation Zrotation
													End Site
													{
														OFFSET 0.000000 0.000000 0.000000
													}
												}
											}
										}
										JOINT RightHandPinky1
										{
											OFFSET -23.655350 0.125290 -12.815412
											CHANNELS 3 Xrotation Yrotation Zrotation
											JOINT RightHandPinky2
											{
												OFFSET -8.425102 0.000000 0.000000
												CHANNELS 3 Xrotation Yrotation Zrotation
												JOINT RightHandPinky3
												{
													OFFSET -8.147003 0.000000 0.000000
													CHANNELS 3 Xrotation Yrotation Zrotation
													End Site
													{
														OFFSET 0.000000 0.000000 0.000000
													}
												}
											}
										}
									}
								}
							}
						}
					}
				}
			}
		}
	}
	JOINT LeftUpLeg
	{
		OFFSET 11.394100 -6.187798 -0.413800
		CHANNELS 3 Xrotation Yrotation Zrotation
		JOINT LeftLeg
		{
			OFFSET 0.430247 -32.302673 3.732800
			CHANNELS 3 Xrotation Yrotation Zrotation
			JOINT LeftFoot
			{
				OFFSET -0.430247 -48.264931 -6.423300
				CHANNELS 3 Xrotation Yrotation Zrotation
				JOINT LeftToeBase
				{
					OFFSET 4.230900 -16.068199 23.438400
					CHANNELS 3 Xrotation Yrotation Zrotation
					JOINT LeftToe_End
					{
						OFFSET 4.510700 0.695400 19.974600
						CHANNELS 3 Xrotation Yrotation Zrotation
						End Site
						{
							OFFSET 0.000000 0.000000 0.000000
						}
					}
				}
			}
		}
	}
	JOINT RightUpLeg
	{
		OFFSET -11.333700 -6.187798 -0.413800
		CHANNELS 3 Xrotation Yrotation Zrotation
		JOINT RightLeg
		{
			OFFSET -0.430392 -32.302628 3.733000
			CHANNELS 3 Xrotation Yrotation Zrotation
			JOINT RightFoot
			{
				OFFSET 0.430392 -48.264973 -6.423500
				CHANNELS 3 Xrotation Yrotation Zrotation
				JOINT RightToeBase
				{
					OFFSET -4.230900 -16.068199 23.438400
					CHANNELS 3 Xrotation Yrotation Zrotation
					JOINT RightToe_End
					{
						OFFSET -4.510700 0.695400 19.974600
						CHANNELS 3 Xrotation Yrotation Zrotation
						End Site
						{
							OFFSET 0.000000 0.000000 0.000000
						}
					}
				}
			}
		}
	}
}
MOTION
Frames: 4
Frame Time: 0.016667
0.067683 126.155678 0.949311 4.532004 -38.377843 4.700622 30.124952 -4.061453 -10.117671 12.785631 1.087589 -3.033125 0.000000 0.000000 0.000000 12.733212 1.050405 -3.241307 -8.164134 20.999271 -13.038093 -23.845982 13.475285 4.639315 0.000002 -0.000000 0.000000 9.829636 -9.813816 -1.458552 0.000000 0.000000 0.000000 -62.537717 12.081209 3.106152 46.615566 -25.819860 31.530096 -9.264678 7.312748 9.666260 40.109938 -15.297079 -0.360440 5.639824 28.097621 11.338687 1.088582 40.896769 22.734022 -0.000001 -0.000001 0.000000 6.882240 2.840069 -61.140411 8.247932 7.639988 -89.897953 0.000000 -0.000000 0.000001 -2.345510 4.688836 -62.655333 8.754108 9.897114 -87.051123 0.000003 0.000001 -0.000000 -9.042531 10.045669 -60.766315 8.524091 9.508820 -66.893076 -0.000002 0.000000 0.000000 -17.946945 14.754961 -51.485805 8.868410 8.667038 -84.811982 -0.000004 0.000004 -0.000002 14.990496 20.897819 -4.160223 0.000000 0.000000 0.000000 -28.001552 -11.258121 -3.541423 -45.194546 43.244011 34.197698 -6.582778 -10.157729 -10.545323 -1.525702 -5.490521 13.054240 1.517217 -22.702495 -8.022587 -6.615008 18.786681 8.531385 0.000001 -0.000000 0.000002 1.268147 4.823973 -8.200812 0.525038 1.162828 0.172170 0.000000 0.000001 0.000001 0.868472 -5.217180 -11.333477 1.480002 -3.605084 20.026716 0.000001 -0.000000 -0.000003 1.814739 -11.814410 -9.180223 1.792560 -3.024106 21.110257 -0.000001 0.000000 -0.000000 2.626209 -21.407336 -3.836554 5.351740 -1.276948 0.651243 0.000000 0.000000 0.000001 -83.693743 -21.022023 27.809310 62.866229 0.754825 7.369731 15.174305 -0.066830 1.090312 -0.000259 -0.007730 0.000034 0.000001 -0.000000 -0.000002 -144.628696 -42.453263 -11.899658 121.459833 13.358464 -14.166838 32.640053 5.092510 33.047235 -0.000202 0.000201 -0.000348 -0.000000 -0.000000 0.000000 
0.046291 126.135811 0.991208 4.464057 -38.109775 4.608513 30.124669 -4.125462 -10.118430 12.788138 1.087593 -3.033132 0.000000 0.000000 0.000000 12.735768 1.050413 -3.241319 -8.920856 20.968730 -13.048927 -25.340150 14.061497 5.597398 -0.000001 -0.000000 0.000001 9.984071 -9.728887 -0.757578 0.000000 0.000000 0.000000 -62.955800 11.135343 3.775612 46.589229 -25.768456 31.469591 -9.041975 6.729838 9.359704 40.109931 -15.297076 -0.360438 5.639827 28.097619 11.338681 1.088583 40.896769 22.734018 -0.000001 -0.000002 0.000000 6.882239 2.840071 -61.140411 8.247931 7.639992 -89.897953 -0.000002 0.000001 0.000000 -2.345513 4.688836 -62.655333 8.754112 9.897115 -87.051116 0.000005 0.000002 -0.000001 -9.042529 10.045666 -60.766315 8.524091 9.508819 -66.893083 -0.000000 0.000000 -0.000002 -17.946949 14.754957 -51.485799 8.868408 8.667042 -84.811982 0.000002 -0.000000 -0.000001 15.302923 20.568551 -4.925038 0.000000 0.000000 0.000000 -28.808297 -11.687220 -3.682297 -45.727884 43.802218 34.969216 -6.236517 -12.921153 -11.831710 -1.525702 -5.490520 13.054249 1.517215 -22.702495 -8.022583 -6.615008 18.786679 8.531384 0.000000 -0.000000 -0.000001 1.268142 4.826741 -8.222275 0.524601 1.165251 0.150705 -0.000000 0.000000 0.000001 0.868223 -5.213087 -11.361331 1.477423 -3.598028 19.974673 0.000000 -0.000000 -0.000001 1.809764 -11.815188 -9.204589 1.789873 -3.018416 21.069322 -0.000000 -0.000000 0.000002 2.624995 -21.404747 -3.858347 5.348390 -1.270565 0.567669 0.000001 -0.000000 -0.000000 -83.940327 -20.851058 27.466218 62.945077 2.145172 8.120198 15.295133 -0.680629 2.604365 0.170563 -0.007764 0.000006 -0.000002 0.000000 -0.000002 -144.895906 -42.377642 -11.787605 121.493288 13.241757 -14.183560 33.652492 5.310125 33.576742 -0.000187 0.000137 -0.000359 0.000000 -0.000000 -0.000001 
0.061660 126.133835 0.996190 4.402788 -37.895939 4.486316 30.124949 -4.130688 -10.111940 12.798052 1.087546 -3.033112 0.000000 0.000000 0.000000 12.745775 1.050446 -3.241321 -8.938867 20.977119 -13.011273 -25.364809 13.878976 5.705351 0.000001 -0.000001 -0.000001 10.133433 -9.721069 -0.028974 0.000000 0.000000 0.000000 -63.361370 10.080288 4.356416 46.550038 -25.690305 31.376748 -8.810573 6.229382 9.041429 40.109938 -15.297079 -0.360434 5.639828 28.097621 11.338681 1.088583 40.896765 22.734022 0.000000 0.000001 0.000000 6.882237 2.840067 -61.140411 8.247930 7.639989 -89.897953 -0.000004 0.000001 0.000000 -2.345509 4.688836 -62.655333 8.754113 9.897120 -87.051123 -0.000001 0.000001 -0.000001 -9.042529 10.045663 -60.766315 8.524092 9.508818 -66.893076 0.000003 0.000002 -0.000002 -17.946947 14.754955 -51.485802 8.868413 8.667040 -84.811982 0.000002 -0.000003 0.000001 15.618578 20.231679 -5.707894 0.000000 0.000000 0.000000 -29.640111 -12.140663 -3.854857 -46.313774 44.391804 35.807813 -5.972651 -16.119264 -13.160338 -1.525703 -5.490521 13.054244 1.517217 -22.702492 -8.022591 -6.615011 18.786676 8.531388 -0.000000 -0.000000 -0.000000 1.268114 4.834604 -8.283329 0.527608 1.173655 0.089702 -0.000000 0.000001 0.000001 0.867561 -5.201534 -11.440757 1.470007 -3.577903 19.826707 0.000001 -0.000000 0.000001 1.800669 -11.816956 -9.274032 1.782251 -3.002210 20.952816 -0.000001 -0.000001 0.000002 2.621614 -21.397325 -3.920225 5.338788 -1.252255 0.329964 -0.000001 -0.000001 0.000003 -83.970790 -20.902501 27.457439 62.985839 2.052087 8.070957 15.408046 -0.734256 2.774473 0.215765 -0.007780 -0.000026 -0.000001 0.000001 -0.000001 -145.219548 -42.347682 -11.820618 121.639276 13.069042 -14.171237 33.904458 5.384069 33.712779 -0.000207 0.000185 -0.000349 0.000000 -0.000000 0.000001 
0.079786 126.129959 0.998440 4.342609 -37.684192 4.363321 30.130341 -4.134210 -10.098810 12.814277 1.087508 -3.033101 0.000000 0.000000 0.000000 12.762084 1.050439 -3.241337 -8.900546 20.965568 -12.984462 -25.327581 13.653082 5.711545 -0.000000 0.000000 0.000000 10.281094 -9.782281 0.722430 0.000000 0.000000 0.000000 -63.758607 8.941652 4.845699 46.500269 -25.586459 31.254345 -8.574785 5.831140 8.725814 40.109938 -15.297079 -0.360439 5.639825 28.097619 11.338684 1.088582 40.896765 22.734022 0.000001 0.000002 0.000000 6.882240 2.840069 -61.140418 8.247932 7.639993 -89.897946 -0.000001 0.000000 -0.000000 -2.345509 4.688836 -62.655333 8.754108 9.897119 -87.051116 0.000002 -0.000000 -0.000000 -9.042528 10.045671 -60.766315 8.524096 9.508820 -66.893076 0.000001 0.000001 -0.000005 -17.946949 14.754961 -51.485799 8.868412 8.667036 -84.811982 0.000002 -0.000000 -0.000001 15.932613 19.880775 -6.500306 0.000000 0.000000 0.000000 -30.491033 -12.602414 -4.047638 -46.939645 44.997122 36.694891 -5.836491 -19.436200 -14.502638 -1.525702 -5.490521 13.054243 1.517216 -22.702495 -8.022587 -6.615009 18.786678 8.531384 0.000000 0.000000 -0.000001 1.272686 4.847377 -8.379336 0.532370 1.186892 0.002690 0.000001 -0.000001 0.000000 0.866597 -5.183221 -11.565169 1.458485 -3.546339 19.594628 0.000000 0.000000 0.000000 1.786137 -11.819740 -9.382939 1.770359 -2.976795 20.770144 0.000000 -0.000001 -0.000003 2.616267 -21.385720 -4.017278 5.323960 -1.223551 -0.000021 -0.000002 0.000000 0.000001 -84.019270 -20.975323 27.458662 63.029512 1.893993 7.986772 15.621467 -0.729792 2.895384 0.181327 -0.007793 0.000011 0.000000 -0.000000 -0.000002 -145.557451 -42.317048 -11.858910 121.773175 12.861432 -14.158898 34.180025 5.463450 33.850554 -0.000192 0.000199 -0.000347 -0.000000 -0.000000 0.000002 
